HIERARCHY
ROOT Hips
{
	OFFSET 0.000000 71.427986 0.000000
	CHANNELS 6 Xposition Yposition Zposition Xrotation Yrotation Zrotation
	JOINT Pelvis
	{
		OFFSET 0.000000 0.000000 0.000000
		CHANNELS 3 Xrotation Yrotation Zrotation
		JOINT LeftUpLeg
		{
			OFFSET 6.797100 -2.508499 -1.318700
			CHANNELS 3 Xrotation Yrotation Zrotation
			JOINT LeftLeg
			{
				OFFSET 0.069008 -29.241863 0.690200
				CHANNELS 3 Xrotation Yrotation Zrotation
				JOINT LeftFoot
				{
					OFFSET -0.069008 -29.568123 -0.266800
					CHANNELS 3 Xrotation Yrotation Zrotation
					JOINT LeftToeBase
					{
						OFFSET 3.145500 -8.631000 16.059900
						CHANNELS 3 Xrotation Yrotation Zrotation
						End Site
						{
							OFFSET 0.000000 18.501587 0.000000
						}
					}
				}
			}
			JOINT Left_ShortSleeve
			{
				OFFSET 0.265923 -10.480953 1.153800
				CHANNELS 3 Xrotation Yrotation Zrotation
				End Site
				{
					OFFSET 1.725763 19.823879 0.000000
				}
			}
		}
		JOINT RightUpLeg
		{
			OFFSET -6.797100 -2.508499 -1.318700
			CHANNELS 3 Xrotation Yrotation Zrotation
			JOINT RightLeg
			{
				OFFSET -0.082453 -29.241932 0.688000
				CHANNELS 3 Xrotation Yrotation Zrotation
				JOINT RightFoot
				{
					OFFSET 0.082453 -29.568058 -0.264600
					CHANNELS 3 Xrotation Yrotation Zrotation
					JOINT RightToeBase
					{
						OFFSET -3.115300 -8.682800 16.113400
						CHANNELS 3 Xrotation Yrotation Zrotation
						End Site
						{
							OFFSET 0.000000 18.567114 0.000000
						}
					}
				}
			}
			JOINT Right_ShortSleeve
			{
				OFFSET -0.265923 -10.480953 1.153800
				CHANNELS 3 Xrotation Yrotation Zrotation
				End Site
				{
					OFFSET -1.725766 19.823910 0.000000
				}
			}
		}
	}
	JOINT Spine
	{
		OFFSET 0.000000 13.368103 0.470500
		CHANNELS 3 Xrotation Yrotation Zrotation
		JOINT Spine1
		{
			OFFSET 0.147000 13.837402 0.538800
			CHANNELS 3 Xrotation Yrotation Zrotation
			JOINT Spine2
			{
				OFFSET 0.168000 16.242897 -1.435500
				CHANNELS 3 Xrotation Yrotation Zrotation
				JOINT Neck
				{
					OFFSET 0.217200 18.631500 -1.679100
					CHANNELS 3 Xrotation Yrotation Zrotation
					JOINT Head
					{
						OFFSET 0.000000 6.599396 1.385900
						CHANNELS 3 Xrotation Yrotation Zrotation
						JOINT Hat
						{
							OFFSET -0.532200 27.220596 -10.096100
							CHANNELS 3 Xrotation Yrotation Zrotation
							End Site
							{
								OFFSET 0.000000 22.029861 0.000000
							}
						}
						JOINT HairD
						{
							OFFSET -10.777400 17.437393 -1.325900
							CHANNELS 3 Xrotation Yrotation Zrotation
							JOINT HairD1
							{
								OFFSET -3.290299 -11.051193 1.062200
								CHANNELS 3 Xrotation Yrotation Zrotation
								End Site
								{
									OFFSET 0.000000 11.579437 0.000000
								}
							}
						}
						JOINT HairB
						{
							OFFSET -10.777400 17.437393 1.467900
							CHANNELS 3 Xrotation Yrotation Zrotation
							JOINT HairB1
							{
								OFFSET -1.561200 -12.956299 3.590200
								CHANNELS 3 Xrotation Yrotation Zrotation
								End Site
								{
									OFFSET 0.000000 13.534866 0.000000
								}
							}
						}
						JOINT HairA
						{
							OFFSET 9.713100 17.437393 1.467900
							CHANNELS 3 Xrotation Yrotation Zrotation
							JOINT HairA1
							{
								OFFSET 1.561200 -12.956299 3.590200
								CHANNELS 3 Xrotation Yrotation Zrotation
								End Site
								{
									OFFSET 0.000000 13.534866 0.000000
								}
							}
						}
						JOINT HairC
						{
							OFFSET 9.713100 17.437393 -1.325900
							CHANNELS 3 Xrotation Yrotation Zrotation
							JOINT HairC1
							{
								OFFSET 3.290300 -11.051193 1.062200
								CHANNELS 3 Xrotation Yrotation Zrotation
								End Site
								{
									OFFSET 0.000000 11.579437 0.000000
								}
							}
						}
					}
				}
				JOINT LeftShoulder
				{
					OFFSET 5.101800 15.108002 -2.763700
					CHANNELS 3 Xrotation Yrotation Zrotation
					JOINT LeftArm
					{
						OFFSET 9.825497 2.506317 -1.597400
						CHANNELS 3 Xrotation Yrotation Zrotation
						JOINT LeftForeArm
						{
							OFFSET 21.966244 0.000000 0.000000
							CHANNELS 3 Xrotation Yrotation Zrotation
							JOINT LeftHand
							{
								OFFSET 33.879036 0.000000 0.000000
								CHANNELS 3 Xrotation Yrotation Zrotation
								JOINT LeftHandThumb1
								{
									OFFSET 6.715286 -2.359680 3.363841
									CHANNELS 3 Xrotation Yrotation Zrotation
									JOINT LeftHandThumb2
									{
										OFFSET 2.507072 -1.447464 1.447461
										CHANNELS 3 Xrotation Yrotation Zrotation
										JOINT LeftHandThumb3
										{
											OFFSET 2.898338 -1.673355 1.673357
											CHANNELS 3 Xrotation Yrotation Zrotation
											End Site
											{
												OFFSET -0.295959 3.727692 -0.131651
											}
										}
									}
								}
								JOINT LeftHandIndex1
								{
									OFFSET 14.190811 -0.254547 3.840278
									CHANNELS 3 Xrotation Yrotation Zrotation
									JOINT LeftHandIndex2
									{
										OFFSET 3.551727 0.000000 -0.000000
										CHANNELS 3 Xrotation Yrotation Zrotation
										JOINT LeftHandIndex3
										{
											OFFSET 2.894196 0.000000 0.000000
											CHANNELS 3 Xrotation Yrotation Zrotation
											End Site
											{
												OFFSET -1.000603 2.690872 0.366626
											}
										}
									}
								}
								JOINT LeftHandMiddle1
								{
									OFFSET 13.776489 0.000000 0.000000
									CHANNELS 3 Xrotation Yrotation Zrotation
									JOINT LeftHandMiddle2
									{
										OFFSET 3.438232 0.000000 0.000000
										CHANNELS 3 Xrotation Yrotation Zrotation
										JOINT LeftHandMiddle3
										{
											OFFSET 3.691551 0.000000 0.000000
											CHANNELS 3 Xrotation Yrotation Zrotation
											End Site
											{
												OFFSET -1.082298 3.499527 0.457670
											}
										}
									}
								}
								JOINT LeftHandRing1
								{
									OFFSET 13.966164 -0.268127 -3.067488
									CHANNELS 3 Xrotation Yrotation Zrotation
									JOINT LeftHandRing2
									{
										OFFSET 3.162567 0.000000 0.000000
										CHANNELS 3 Xrotation Yrotation Zrotation
										JOINT LeftHandRing3
										{
											OFFSET 3.324348 0.000000 0.000000
											CHANNELS 3 Xrotation Yrotation Zrotation
											End Site
											{
												OFFSET -0.861900 3.184998 0.405154
											}
										}
									}
								}
								JOINT LeftHandPinky1
								{
									OFFSET 13.131393 -0.168503 -5.746925
									CHANNELS 3 Xrotation Yrotation Zrotation
									JOINT LeftHandPinky2
									{
										OFFSET 2.849182 0.000000 0.000000
										CHANNELS 3 Xrotation Yrotation Zrotation
										JOINT LeftHandPinky3
										{
											OFFSET 2.805038 0.000000 0.000000
											CHANNELS 3 Xrotation Yrotation Zrotation
											End Site
											{
												OFFSET -0.882500 2.642609 0.325652
											}
										}
									}
								}
							}
							JOINT Left_Sleeve
							{
								OFFSET 6.592125 -0.646545 0.805568
								CHANNELS 3 Xrotation Yrotation Zrotation
								End Site
								{
									OFFSET -0.000179 20.275787 -0.000000
								}
							}
						}
					}
				}
				JOINT RightShoulder
				{
					OFFSET -5.731700 15.108002 -2.763700
					CHANNELS 3 Xrotation Yrotation Zrotation
					JOINT RightArm
					{
						OFFSET -9.825497 2.506317 -1.597400
						CHANNELS 3 Xrotation Yrotation Zrotation
						JOINT RightForeArm
						{
							OFFSET -21.966242 0.000000 0.000000
							CHANNELS 3 Xrotation Yrotation Zrotation
							JOINT RightHand
							{
								OFFSET -33.879032 0.000000 0.000000
								CHANNELS 3 Xrotation Yrotation Zrotation
								JOINT RightHandThumb1
								{
									OFFSET -6.715286 -2.359680 3.363841
									CHANNELS 3 Xrotation Yrotation Zrotation
									JOINT RightHandThumb2
									{
										OFFSET -2.507072 -1.447464 1.447461
										CHANNELS 3 Xrotation Yrotation Zrotation
										JOINT RightHandThumb3
										{
											OFFSET -2.898338 -1.673355 1.673357
											CHANNELS 3 Xrotation Yrotation Zrotation
											End Site
											{
												OFFSET 0.295959 3.727692 -0.131651
											}
										}
									}
								}
								JOINT RightHandIndex1
								{
									OFFSET -14.190811 -0.254547 3.840278
									CHANNELS 3 Xrotation Yrotation Zrotation
									JOINT RightHandIndex2
									{
										OFFSET -3.551727 0.000000 -0.000000
										CHANNELS 3 Xrotation Yrotation Zrotation
										JOINT RightHandIndex3
										{
											OFFSET -2.894196 0.000000 0.000000
											CHANNELS 3 Xrotation Yrotation Zrotation
											End Site
											{
												OFFSET 1.000603 2.690872 0.366626
											}
										}
									}
								}
								JOINT RightHandMiddle1
								{
									OFFSET -13.776489 0.000000 0.000000
									CHANNELS 3 Xrotation Yrotation Zrotation
									JOINT RightHandMiddle2
									{
										OFFSET -3.438232 0.000000 0.000000
										CHANNELS 3 Xrotation Yrotation Zrotation
										JOINT RightHandMiddle3
										{
											OFFSET -3.691551 0.000000 0.000000
											CHANNELS 3 Xrotation Yrotation Zrotation
											End Site
											{
												OFFSET 1.082298 3.499527 0.457670
											}
										}
									}
								}
								JOINT RightHandRing1
								{
									OFFSET -13.966164 -0.268127 -3.067488
									CHANNELS 3 Xrotation Yrotation Zrotation
									JOINT RightHandRing2
									{
										OFFSET -3.162567 0.000000 0.000000
										CHANNELS 3 Xrotation Yrotation Zrotation
										JOINT RightHandRing3
										{
											OFFSET -3.324348 0.000000 0.000000
											CHANNELS 3 Xrotation Yrotation Zrotation
											End Site
											{
												OFFSET 0.861900 3.184998 0.405154
											}
										}
									}
								}
								JOINT RightHandPinky1
								{
									OFFSET -13.131393 -0.168503 -5.746925
									CHANNELS 3 Xrotation Yrotation Zrotation
									JOINT RightHandPinky2
									{
										OFFSET -2.849182 0.000000 0.000000
										CHANNELS 3 Xrotation Yrotation Zrotation
										JOINT RightHandPinky3
										{
											OFFSET -2.805038 0.000000 0.000000
											CHANNELS 3 Xrotation Yrotation Zrotation
											End Site
											{
												OFFSET 0.882500 2.642609 0.325652
											}
										}
									}
								}
							}
							JOINT Right_Sleeve
							{
								OFFSET -6.592125 -0.646545 0.805568
								CHANNELS 3 Xrotation Yrotation Zrotation
								End Site
								{
									OFFSET 0.000179 20.275787 -0.000000
								}
							}
						}
					}
				}
				JOINT Bind_Right_JacketString
				{
					OFFSET -3.534800 11.969597 7.200700
					CHANNELS 3 Xrotation Yrotation Zrotation
					JOINT Bind_Right_JacketString1
					{
						OFFSET -0.319900 -6.102600 2.794100
						CHANNELS 3 Xrotation Yrotation Zrotation
						End Site
						{
							OFFSET 0.000000 6.719452 0.000000
						}
					}
				}
				JOINT Bind_Left_JacketString
				{
					OFFSET 2.904800 11.969597 7.200700
					CHANNELS 3 Xrotation Yrotation Zrotation
					JOINT Bind_Left_JacketString1
					{
						OFFSET 0.364800 -5.904503 3.186800
						CHANNELS 3 Xrotation Yrotation Zrotation
						End Site
						{
							OFFSET 0.000000 6.719513 0.000000
						}
					}
				}
				JOINT HairE
				{
					OFFSET 5.915200 17.612701 -11.592200
					CHANNELS 3 Xrotation Yrotation Zrotation
					JOINT HairE1
					{
						OFFSET 0.289200 -7.171898 -1.284500
						CHANNELS 3 Xrotation Yrotation Zrotation
						End Site
						{
							OFFSET 0.000000 7.291756 0.000000
						}
					}
				}
				JOINT HairF
				{
					OFFSET -0.864800 17.612701 -11.592200
					CHANNELS 3 Xrotation Yrotation Zrotation
					JOINT HairF1
					{
						OFFSET 0.000000 -14.087097 -2.127501
						CHANNELS 3 Xrotation Yrotation Zrotation
						End Site
						{
							OFFSET 0.000000 14.246841 0.000000
						}
					}
				}
				JOINT HairG
				{
					OFFSET -8.087700 17.612701 -11.592200
					CHANNELS 3 Xrotation Yrotation Zrotation
					JOINT HairG1
					{
						OFFSET -0.293600 -6.081398 -0.910100
						CHANNELS 3 Xrotation Yrotation Zrotation
						End Site
						{
							OFFSET 0.000000 6.156120 0.000000
						}
					}
				}
			}
		}
	}
	JOINT Pouch
	{
		OFFSET 0.000000 4.394501 10.847300
		CHANNELS 3 Xrotation Yrotation Zrotation
		End Site
		{
			OFFSET 0.000000 21.880577 0.000000
		}
	}
	JOINT Bag
	{
		OFFSET -13.229000 4.813004 -0.593300
		CHANNELS 3 Xrotation Yrotation Zrotation
		End Site
		{
			OFFSET 0.000000 21.880577 0.000000
		}
	}
	JOINT OccupyGuyFacialAnim_Joint
	{
		OFFSET 1.000000 -70.206398 -1.655000
		CHANNELS 3 Xrotation Yrotation Zrotation
		End Site
		{
			OFFSET 0.000000 21.880577 0.000000
		}
	}
}
MOTION
Frames: 4
Frame Time: 0.033333
0.952289 59.548584 -46.251904 22.151676 -19.146552 0.717930 -0.000001 -0.000001 -0.000000 -72.837540 -3.954450 12.253316 64.555574 -6.649090 1.538247 -11.026934 -0.876874 -2.465617 0.000000 -0.000001 -0.000000 -0.000003 0.000001 0.000000 -31.126193 -11.688995 -12.803458 54.475116 -7.020334 2.508464 -34.111153 -17.017367 20.541620 0.000000 0.000000 0.000000 0.000000 -0.000003 -0.000001 5.817418 1.446297 -1.081171 9.973008 2.445197 -2.021058 9.975552 2.417129 -2.042649 10.598469 2.357585 -2.721032 -21.458556 11.552248 1.981182 0.000002 -0.000000 0.000000 0.000002 -0.000000 0.000000 0.000002 -0.000000 0.000000 0.000002 -0.000000 -0.000000 0.000002 -0.000000 -0.000000 0.000002 -0.000000 -0.000000 0.000002 -0.000000 -0.000000 0.000002 -0.000000 0.000000 0.000002 -0.000000 0.000000 -0.159351 1.807491 10.216933 -32.428078 -43.256835 -15.461977 -0.000004 -36.847894 0.000004 7.264171 -23.352649 4.715967 -15.791619 -10.747745 -9.100054 20.917009 46.473154 -11.778544 -0.000000 -0.000000 -0.000001 6.652481 6.877434 -88.093068 5.401913 6.721043 -77.557085 0.000001 -0.000002 0.000001 6.356665 6.861296 -85.619106 6.533322 6.872428 -87.095198 0.000001 -0.000001 -0.000001 7.397675 6.861858 -94.314585 5.945585 6.817606 -82.166718 -0.000002 -0.000000 0.000001 10.316062 7.228238 -84.674668 6.252037 2.766266 -84.760920 -0.000000 0.000000 0.000001 0.000000 -0.000000 -0.000003 4.240126 13.129440 -13.369937 -31.942828 47.153833 13.347288 -0.000005 37.180596 -0.000005 6.798238 21.881331 9.834014 -11.325324 -2.381239 -8.088947 16.297048 -35.365418 2.657660 -0.000000 0.000000 -0.000000 4.579152 -6.856796 88.009699 6.415964 -6.927878 85.596047 -0.000000 -0.000001 -0.000002 6.763078 -6.945787 88.468640 7.098710 -6.946596 91.244053 0.000001 -0.000001 0.000001 6.929505 -6.949198 89.929959 7.218899 -6.942986 92.237914 -0.000000 -0.000000 -0.000002 8.151027 -6.845248 98.564623 7.389688 -6.934272 93.651497 -0.000001 0.000002 0.000001 -0.000000 0.000000 -0.000002 0.000001 0.000000 -0.000000 0.000001 -0.000000 -0.000000 0.000001 0.000000 0.000000 0.000001 0.000000 0.000000 0.000001 0.000000 -0.000000 0.000001 -0.000000 -0.000000 0.000001 0.000000 0.000000 0.000001 0.000000 0.000000 0.000001 0.000000 -0.000000 0.000001 -0.000000 -0.000000 -0.000001 -0.000001 -0.000000 -0.000001 -0.000001 -0.000000 -0.000001 -0.000001 -0.000000 
0.914509 59.394066 -46.174713 21.835160 -19.073295 0.723497 0.000000 0.000000 -0.000000 -72.882264 -3.972213 12.155041 65.243558 -6.598823 1.511194 -11.235043 -0.842280 -2.459195 0.000000 -0.000000 0.000000 -0.000002 -0.000000 0.000001 -31.011678 -11.746445 -13.089277 55.070852 -7.225807 2.515252 -34.445310 -16.813049 20.811301 0.000000 -0.000000 -0.000000 -0.000001 0.000000 -0.000000 5.804746 1.452652 -1.086492 9.960264 2.451094 -2.029278 9.962545 2.425052 -2.050717 10.591994 2.286491 -2.718993 -21.377365 11.315717 1.612165 -0.000000 -0.000000 -0.000000 -0.000000 -0.000000 -0.000000 -0.000000 -0.000000 0.000000 -0.000000 -0.000000 0.000000 -0.000002 0.000000 0.000000 -0.000000 -0.000000 0.000000 -0.000002 0.000000 0.000000 -0.000000 -0.000000 -0.000000 -0.000000 -0.000000 -0.000000 -0.157351 1.829543 10.132242 -31.943384 -42.601573 -15.022446 0.000001 -38.585101 0.000007 6.831436 -22.996579 4.719868 -15.881949 -10.621390 -9.427040 20.891937 46.444187 -11.759394 0.000001 -0.000000 0.000001 6.654901 6.877486 -88.110164 5.400222 6.720658 -77.542776 0.000000 0.000000 -0.000000 6.355959 6.861201 -85.610998 6.537455 6.872643 -87.129773 0.000001 0.000001 -0.000001 7.403053 6.861423 -94.358490 5.942317 6.817142 -82.139295 -0.000000 0.000001 0.000000 10.322920 7.225721 -84.718962 6.254320 2.766461 -84.780167 -0.000001 -0.000000 0.000001 -0.000000 0.000000 -0.000001 4.245851 13.141664 -13.337591 -31.511344 47.009798 12.960177 -0.000002 38.059238 0.000005 6.618461 21.653455 10.106102 -11.325609 -2.380887 -8.088009 16.296775 -35.364944 2.657583 0.000000 -0.000001 0.000000 4.615806 -6.860818 88.099099 6.424468 -6.928534 85.666534 0.000001 0.000000 -0.000003 6.773894 -6.946067 88.552795 7.100696 -6.946577 91.260295 -0.000001 0.000000 0.000001 6.943071 -6.949240 89.976479 7.222641 -6.942854 92.268916 -0.000001 -0.000001 -0.000001 8.147735 -6.845765 98.583180 7.390208 -6.934244 93.655820 0.000001 0.000003 -0.000003 -0.000000 0.000000 -0.000002 0.000001 -0.000000 -0.000000 0.000002 0.000000 0.000000 0.000001 -0.000000 -0.000000 0.000001 -0.000000 -0.000000 0.000001 -0.000000 -0.000000 0.000002 0.000000 0.000000 0.000001 -0.000000 -0.000000 0.000001 -0.000000 -0.000000 0.000001 -0.000000 -0.000000 0.000002 0.000000 0.000000 0.000000 0.000000 -0.000000 0.000000 0.000000 -0.000000 0.000000 0.000000 -0.000000 
0.877443 59.217728 -46.161472 21.553826 -19.031151 0.745486 -0.000001 -0.000000 -0.000000 -73.022229 -3.975193 12.162513 65.932342 -6.645502 1.358959 -11.467691 -0.813783 -2.195201 0.000000 0.000001 -0.000000 -0.000001 -0.000001 -0.000000 -31.088644 -11.708254 -13.287003 55.869540 -7.365404 2.443231 -34.835584 -16.795712 20.968751 -0.000000 -0.000000 -0.000000 0.000001 0.000000 -0.000000 5.773971 1.487417 -1.074331 9.918724 2.508949 -2.012559 9.920912 2.484563 -2.034115 10.596703 2.212600 -2.689498 -21.416099 10.960770 1.486567 -0.000001 0.000000 -0.000000 -0.000001 0.000000 -0.000000 -0.000001 0.000000 -0.000000 -0.000001 0.000000 -0.000000 -0.000004 0.000000 0.000000 -0.000001 0.000000 -0.000000 -0.000004 0.000000 0.000000 -0.000001 0.000000 -0.000000 -0.000001 0.000000 -0.000000 -0.151065 1.821338 10.078305 -32.208293 -42.259261 -15.100952 -0.000001 -39.578088 -0.000007 6.629356 -22.648096 4.553399 -15.950039 -10.532761 -9.661799 20.897353 46.450204 -11.763198 0.000000 -0.000000 -0.000001 6.662966 6.877764 -88.170079 5.394228 6.719352 -77.491563 0.000002 -0.000001 -0.000000 6.361575 6.861641 -85.654056 6.536039 6.872570 -87.117956 0.000001 0.000001 -0.000001 7.413457 6.860646 -94.447289 5.940264 6.816869 -82.122055 -0.000001 0.000000 0.000001 10.336745 7.218058 -84.844057 6.256887 2.766698 -84.801525 -0.000001 -0.000002 0.000001 -0.000000 0.000000 -0.000001 4.253939 13.173522 -13.338939 -32.497036 46.765885 13.317003 0.000004 38.458039 0.000001 6.787100 21.548912 9.711807 -11.325657 -2.380887 -8.087812 16.296719 -35.364879 2.657567 0.000001 -0.000001 0.000002 4.625247 -6.863386 88.156528 6.432639 -6.929164 85.734051 -0.000000 -0.000002 0.000002 6.782607 -6.946275 88.629020 7.101912 -6.946541 91.270390 -0.000000 0.000001 -0.000002 6.952791 -6.949262 90.036141 7.225583 -6.942743 92.293102 0.000002 0.000002 -0.000001 8.145542 -6.846092 98.611662 7.391626 -6.934143 93.667637 -0.000002 -0.000003 0.000000 -0.000000 -0.000000 -0.000004 0.000001 0.000002 -0.000000 0.000001 0.000001 -0.000000 0.000001 0.000002 -0.000000 0.000001 0.000002 -0.000000 0.000001 0.000002 -0.000000 0.000001 0.000001 -0.000000 0.000001 0.000002 -0.000000 0.000001 0.000002 -0.000000 0.000001 0.000002 -0.000000 0.000001 0.000001 -0.000000 -0.000001 -0.000000 -0.000000 -0.000001 -0.000000 -0.000000 -0.000001 -0.000000 -0.000000 
0.832757 58.996574 -46.206276 21.268722 -18.944622 0.776337 0.000001 0.000001 -0.000000 -73.224798 -4.090343 11.919292 66.666990 -6.519201 1.471440 -11.685894 -0.756721 -2.218968 0.000000 -0.000002 0.000000 0.000001 0.000001 0.000002 -31.424058 -11.669557 -13.536199 57.096307 -7.375495 2.399503 -35.431798 -16.902268 20.779230 -0.000000 0.000000 -0.000000 0.000000 -0.000001 -0.000003 5.756200 1.534333 -1.021316 9.910701 2.581834 -1.960451 9.913597 2.555372 -1.981197 10.509721 2.105811 -2.573622 -21.429076 10.563267 1.081002 0.000002 -0.000000 -0.000000 0.000002 -0.000000 -0.000000 0.000002 -0.000000 -0.000000 0.000002 -0.000000 -0.000000 -0.000002 0.000000 -0.000000 0.000002 -0.000000 -0.000000 -0.000002 0.000000 -0.000000 0.000002 -0.000000 -0.000000 0.000002 -0.000000 -0.000000 -0.155604 1.848065 10.061006 -33.269360 -42.129013 -15.566491 -0.000001 -40.576385 0.000004 6.008320 -22.396341 4.450030 -15.917406 -10.483795 -9.673321 20.952169 46.512738 -11.804081 -0.000001 -0.000000 -0.000001 6.668880 6.877952 -88.223518 5.389518 6.718317 -77.451080 0.000001 0.000000 -0.000002 6.366652 6.862035 -85.700515 6.529800 6.872247 -87.065979 0.000001 0.000000 0.000001 7.425013 6.859742 -94.548458 5.936176 6.816313 -82.087563 -0.000002 -0.000000 -0.000000 10.349864 7.208956 -84.987313 6.259497 2.766925 -84.823286 -0.000001 -0.000002 0.000001 0.000001 0.000001 0.000002 4.246464 13.143467 -13.385708 -34.570876 46.325973 14.240478 -0.000002 39.470837 0.000002 7.238304 21.327582 9.625076 -11.325024 -2.381567 -8.089800 16.297275 -35.365879 2.657750 -0.000001 -0.000001 0.000001 4.615059 -6.862815 88.117213 6.439093 -6.929629 85.787593 -0.000000 0.000000 0.000004 6.777570 -6.946140 88.604492 7.103048 -6.946497 91.279925 -0.000002 -0.000002 -0.000001 6.945272 -6.949417 89.984471 7.227351 -6.942646 92.307746 0.000000 -0.000002 -0.000002 8.138164 -6.847475 98.570838 7.391888 -6.934129 93.669843 -0.000000 0.000002 0.000002 0.000000 -0.000000 -0.000002 -0.000002 -0.000001 0.000000 -0.000002 -0.000001 -0.000001 -0.000002 -0.000001 0.000000 -0.000002 -0.000001 0.000000 -0.000002 -0.000001 0.000000 -0.000002 -0.000001 -0.000001 -0.000002 -0.000001 0.000000 -0.000002 -0.000001 0.000000 -0.000002 -0.000001 0.000000 -0.000002 -0.000001 -0.000001 0.000001 0.000001 -0.000000 0.000001 0.000001 -0.000000 0.000001 0.000001 -0.000000 
